<svg width="405" height="73" viewBox="0 0 405 73" fill="none" xmlns="http://www.w3.org/2000/svg">
<path d="M102.368 55.468C99.248 55.468 96.5267 55.0867 94.204 54.324C91.8813 53.5613 90.096 52.4867 88.848 51.1C87.6347 49.6787 87.028 48.032 87.028 46.16C87.028 43.3173 88.952 41.896 92.8 41.896C92.9387 44.5307 93.8227 46.524 95.452 47.876C97.116 49.228 99.4387 49.904 102.42 49.904C104.881 49.904 106.788 49.488 108.14 48.656C109.492 47.7893 110.168 46.5933 110.168 45.068C110.168 44.0627 109.908 43.248 109.388 42.624C108.868 41.9653 107.984 41.3933 106.736 40.908C105.488 40.388 103.668 39.868 101.276 39.348C97.8787 38.5507 95.192 37.6667 93.216 36.696C91.2747 35.7253 89.8707 34.564 89.004 33.212C88.1373 31.8253 87.704 30.1093 87.704 28.064C87.704 26.088 88.276 24.3547 89.42 22.864C90.5987 21.3733 92.2453 20.212 94.36 19.38C96.5093 18.548 98.9707 18.132 101.744 18.132C104.413 18.132 106.788 18.496 108.868 19.224C110.983 19.9173 112.629 20.9053 113.808 22.188C115.021 23.4707 115.628 24.944 115.628 26.608C115.628 29.1733 113.773 30.508 110.064 30.612C109.856 28.22 109.093 26.4693 107.776 25.36C106.459 24.2507 104.448 23.696 101.744 23.696C99.4213 23.696 97.636 24.0773 96.388 24.84C95.14 25.6027 94.516 26.6773 94.516 28.064C94.516 29.0347 94.7587 29.8493 95.244 30.508C95.7293 31.132 96.544 31.6867 97.688 32.172C98.832 32.6227 100.461 33.0907 102.576 33.576C106.147 34.3733 108.972 35.2747 111.052 36.28C113.132 37.2507 114.64 38.4467 115.576 39.868C116.512 41.2547 116.98 42.9707 116.98 45.016C116.98 47.1307 116.373 48.9853 115.16 50.58C113.981 52.14 112.283 53.3533 110.064 54.22C107.88 55.052 105.315 55.468 102.368 55.468ZM132.589 55.468C129.781 55.468 127.701 54.6533 126.349 53.024C124.997 51.3947 124.321 49.2973 124.321 46.732V33.836H118.965C118.965 32.2067 119.277 30.9933 119.901 30.196C120.525 29.3987 121.357 29 122.397 29H124.425V24.684C124.425 23.2627 124.945 22.2573 125.985 21.668C127.025 21.044 128.602 20.732 130.717 20.732V29H137.633C137.633 30.7333 137.303 31.9813 136.645 32.744C135.986 33.472 134.929 33.836 133.473 33.836H130.821V46.472C130.821 47.6853 131.046 48.552 131.497 49.072C131.982 49.592 132.797 49.852 133.941 49.852C135.154 49.852 136.367 49.5227 137.581 48.864C137.927 49.176 138.205 49.5747 138.413 50.06C138.621 50.5107 138.725 50.9787 138.725 51.464C138.725 52.504 138.187 53.44 137.113 54.272C136.038 55.0693 134.53 55.468 132.589 55.468ZM156.987 34.148C154.941 34.148 153.277 34.7027 151.995 35.812C150.712 36.8867 150.071 38.2387 150.071 39.868V51.516C150.071 52.9027 149.551 53.908 148.511 54.532C147.471 55.156 145.841 55.468 143.623 55.468V33.524C143.623 31.9293 144.125 30.6987 145.131 29.832C146.171 28.9653 147.731 28.532 149.811 28.532V31.6C149.291 32.1893 148.875 32.7613 148.563 33.316L148.875 33.524C151.059 30.196 153.797 28.532 157.091 28.532C158.581 28.532 159.708 28.9307 160.471 29.728C161.233 30.4907 161.615 31.4613 161.615 32.64C161.615 33.5413 161.372 34.304 160.887 34.928C159.951 34.408 158.651 34.148 156.987 34.148ZM172.364 55.468C170.596 55.468 168.967 55.1213 167.476 54.428C166.02 53.7347 164.841 52.7467 163.94 51.464C163.073 50.1467 162.64 48.5867 162.64 46.784C162.64 44.9813 163.108 43.4213 164.044 42.104C164.98 40.752 166.245 39.7293 167.84 39.036C169.469 38.308 171.255 37.944 173.196 37.944C174.791 37.944 176.212 38.204 177.46 38.724C178.743 39.2093 179.921 39.9547 180.996 40.96L181.256 40.7C180.944 40.388 180.407 39.92 179.644 39.296V38.256C179.644 36.8347 179.141 35.708 178.136 34.876C177.131 34.044 175.727 33.628 173.924 33.628C170.7 33.628 168.325 34.8067 166.8 37.164C166.037 36.9213 165.396 36.54 164.876 36.02C164.356 35.4653 164.096 34.876 164.096 34.252C164.096 33.212 164.564 32.2587 165.5 31.392C166.436 30.5253 167.701 29.832 169.296 29.312C170.891 28.792 172.624 28.532 174.496 28.532C178.171 28.532 181.013 29.3987 183.024 31.132C185.035 32.8307 186.04 35.1533 186.04 38.1V51.1C186.04 52.6253 185.555 53.7347 184.584 54.428C183.613 55.1213 182.088 55.468 180.008 55.468V53.336C180.597 52.7467 180.996 52.3133 181.204 52.036L180.996 51.776C179.852 52.9893 178.621 53.908 177.304 54.532C176.021 55.156 174.375 55.468 172.364 55.468ZM174.028 50.736C175.831 50.736 177.235 50.3893 178.24 49.696C179.245 49.0027 179.748 48.0147 179.748 46.732C179.748 45.484 179.228 44.496 178.188 43.768C177.183 43.04 175.813 42.676 174.08 42.676C172.485 42.676 171.22 43.04 170.284 43.768C169.383 44.4613 168.932 45.4493 168.932 46.732C168.932 48.0493 169.383 49.0547 170.284 49.748C171.185 50.4067 172.433 50.736 174.028 50.736ZM201.905 55.468C199.097 55.468 197.017 54.6533 195.665 53.024C194.313 51.3947 193.637 49.2973 193.637 46.732V33.836H188.281C188.281 32.2067 188.593 30.9933 189.217 30.196C189.841 29.3987 190.673 29 191.713 29H193.741V24.684C193.741 23.2627 194.261 22.2573 195.301 21.668C196.341 21.044 197.918 20.732 200.033 20.732V29H206.949C206.949 30.7333 206.62 31.9813 205.961 32.744C205.302 33.472 204.245 33.836 202.789 33.836H200.137V46.472C200.137 47.6853 200.362 48.552 200.813 49.072C201.298 49.592 202.113 49.852 203.257 49.852C204.47 49.852 205.684 49.5227 206.897 48.864C207.244 49.176 207.521 49.5747 207.729 50.06C207.937 50.5107 208.041 50.9787 208.041 51.464C208.041 52.504 207.504 53.44 206.429 54.272C205.354 55.0693 203.846 55.468 201.905 55.468ZM222.471 55.468C219.663 55.468 217.583 54.6533 216.231 53.024C214.879 51.3947 214.203 49.2973 214.203 46.732V33.836H208.847C208.847 32.2067 209.159 30.9933 209.783 30.196C210.407 29.3987 211.239 29 212.279 29H214.307V24.684C214.307 23.2627 214.827 22.2573 215.867 21.668C216.907 21.044 218.485 20.732 220.599 20.732V29H227.515C227.515 30.7333 227.186 31.9813 226.527 32.744C225.869 33.472 224.811 33.836 223.355 33.836H220.703V46.472C220.703 47.6853 220.929 48.552 221.379 49.072C221.865 49.592 222.679 49.852 223.823 49.852C225.037 49.852 226.25 49.5227 227.463 48.864C227.81 49.176 228.087 49.5747 228.295 50.06C228.503 50.5107 228.607 50.9787 228.607 51.464C228.607 52.504 228.07 53.44 226.995 54.272C225.921 55.0693 224.413 55.468 222.471 55.468ZM243.053 55.468C240.8 55.468 238.755 55.0693 236.917 54.272C235.115 53.44 233.693 52.296 232.653 50.84C231.613 49.384 231.093 47.7373 231.093 45.9V38.568C231.093 36.696 231.596 34.9973 232.601 33.472C233.641 31.9467 235.063 30.7507 236.865 29.884C238.668 28.9827 240.731 28.532 243.053 28.532C245.376 28.532 247.439 28.9827 249.241 29.884C251.079 30.7507 252.5 31.9467 253.505 33.472C254.545 34.9973 255.065 36.696 255.065 38.568V45.9C255.065 47.7373 254.528 49.384 253.453 50.84C252.413 52.296 250.975 53.44 249.137 54.272C247.335 55.0693 245.307 55.468 243.053 55.468ZM243.053 49.904C244.787 49.904 246.139 49.5053 247.109 48.708C248.115 47.9107 248.617 46.836 248.617 45.484V38.88C248.617 37.4587 248.115 36.3147 247.109 35.448C246.139 34.5467 244.787 34.096 243.053 34.096C241.355 34.096 240.003 34.5467 238.997 35.448C237.992 36.3147 237.489 37.4587 237.489 38.88V45.484C237.489 46.836 237.992 47.9107 238.997 48.708C240.003 49.5053 241.355 49.904 243.053 49.904ZM259.15 33.524C259.15 31.9293 259.653 30.6987 260.658 29.832C261.698 28.9653 263.258 28.532 265.338 28.532V31.652C264.922 32.1373 264.506 32.692 264.09 33.316L264.402 33.524C265.442 31.964 266.777 30.7507 268.406 29.884C270.035 28.9827 271.838 28.532 273.814 28.532C275.582 28.532 277.142 28.9307 278.494 29.728C279.846 30.5253 280.886 31.6173 281.614 33.004C282.377 34.3907 282.758 35.9507 282.758 37.684V51.516C282.758 52.9027 282.221 53.908 281.146 54.532C280.071 55.156 278.442 55.468 276.258 55.468V38.62C276.258 37.3027 275.859 36.228 275.062 35.396C274.299 34.564 273.173 34.148 271.682 34.148C269.914 34.148 268.458 34.7027 267.314 35.812C266.17 36.8867 265.598 38.2387 265.598 39.868V51.516C265.598 52.9027 265.078 53.908 264.038 54.532C262.998 55.156 261.369 55.468 259.15 55.468V33.524Z" fill="white"/>
<path d="M316.935 55.468C313.849 55.468 311.093 54.8787 308.667 53.7C306.275 52.5213 304.403 50.8747 303.051 48.76C301.699 46.6453 301.023 44.236 301.023 41.532V31.964C301.023 29.26 301.681 26.868 302.999 24.788C304.351 22.6733 306.205 21.044 308.563 19.9C310.92 18.7213 313.624 18.132 316.675 18.132C319.725 18.132 322.429 18.6 324.787 19.536C327.179 20.4373 329.033 21.72 330.351 23.384C331.668 25.0133 332.327 26.8853 332.327 29C332.327 30.2827 331.893 31.3053 331.027 32.068C330.195 32.796 329.068 33.16 327.647 33.16C326.953 33.16 326.191 33.056 325.359 32.848C325.428 32.016 325.463 31.2013 325.463 30.404C325.463 28.5667 324.648 27.076 323.019 25.932C321.389 24.788 319.275 24.216 316.675 24.216C314.109 24.216 312.012 24.944 310.383 26.4C308.788 27.8213 307.991 29.676 307.991 31.964V41.532C307.991 43.8547 308.823 45.744 310.487 47.2C312.151 48.656 314.3 49.384 316.935 49.384C319.535 49.384 321.649 48.812 323.279 47.668C324.908 46.524 325.723 45.0507 325.723 43.248C325.723 42.416 325.688 41.6187 325.619 40.856C326.485 40.6827 327.213 40.596 327.803 40.596C329.259 40.596 330.42 40.9773 331.287 41.74C332.153 42.5027 332.587 43.5427 332.587 44.86C332.587 46.9053 331.928 48.7427 330.611 50.372C329.293 51.9667 327.439 53.2147 325.047 54.116C322.689 55.0173 319.985 55.468 316.935 55.468ZM347.155 55.468C344.901 55.468 342.856 55.0693 341.019 54.272C339.216 53.44 337.795 52.296 336.755 50.84C335.715 49.384 335.195 47.7373 335.195 45.9V38.568C335.195 36.696 335.697 34.9973 336.703 33.472C337.743 31.9467 339.164 30.7507 340.967 29.884C342.769 28.9827 344.832 28.532 347.155 28.532C349.477 28.532 351.54 28.9827 353.343 29.884C355.18 30.7507 356.601 31.9467 357.607 33.472C358.647 34.9973 359.167 36.696 359.167 38.568V45.9C359.167 47.7373 358.629 49.384 357.555 50.84C356.515 52.296 355.076 53.44 353.239 54.272C351.436 55.0693 349.408 55.468 347.155 55.468ZM347.155 49.904C348.888 49.904 350.24 49.5053 351.211 48.708C352.216 47.9107 352.719 46.836 352.719 45.484V38.88C352.719 37.4587 352.216 36.3147 351.211 35.448C350.24 34.5467 348.888 34.096 347.155 34.096C345.456 34.096 344.104 34.5467 343.099 35.448C342.093 36.3147 341.591 37.4587 341.591 38.88V45.484C341.591 46.836 342.093 47.9107 343.099 48.708C344.104 49.5053 345.456 49.904 347.155 49.904ZM367.212 26.088C365.964 26.088 364.924 25.724 364.092 24.996C363.295 24.2333 362.896 23.2627 362.896 22.084C362.896 20.94 363.295 20.004 364.092 19.276C364.924 18.5133 365.964 18.132 367.212 18.132C368.46 18.132 369.483 18.5133 370.28 19.276C371.112 20.004 371.528 20.94 371.528 22.084C371.528 23.2627 371.112 24.2333 370.28 24.996C369.483 25.724 368.46 26.088 367.212 26.088ZM363.936 32.484C363.936 31.0627 364.473 30.0573 365.548 29.468C366.623 28.844 368.252 28.532 370.436 28.532V51.516C370.436 52.9027 369.899 53.908 368.824 54.532C367.749 55.156 366.12 55.468 363.936 55.468V32.484ZM377.673 33.524C377.673 31.9293 378.176 30.6987 379.181 29.832C380.221 28.9653 381.781 28.532 383.861 28.532V31.652C383.445 32.1373 383.029 32.692 382.613 33.316L382.925 33.524C383.965 31.964 385.3 30.7507 386.929 29.884C388.559 28.9827 390.361 28.532 392.337 28.532C394.105 28.532 395.665 28.9307 397.017 29.728C398.369 30.5253 399.409 31.6173 400.137 33.004C400.9 34.3907 401.281 35.9507 401.281 37.684V51.516C401.281 52.9027 400.744 53.908 399.669 54.532C398.595 55.156 396.965 55.468 394.781 55.468V38.62C394.781 37.3027 394.383 36.228 393.585 35.396C392.823 34.564 391.696 34.148 390.205 34.148C388.437 34.148 386.981 34.7027 385.837 35.812C384.693 36.8867 384.121 38.2387 384.121 39.868V51.516C384.121 52.9027 383.601 53.908 382.561 54.532C381.521 55.156 379.892 55.468 377.673 55.468V33.524Z" fill="#FFC122"/>
<rect x="6" y="10" width="69" height="63" rx="8" fill="#FFC122"/>
<rect x="0.5" y="0.5" width="58" height="59" rx="7.5" fill="#F5F5F5" stroke="black"/>
</svg>
